<svg width="42" height="45" viewBox="0 0 42 45" fill="none" xmlns="http://www.w3.org/2000/svg">
    <path d="M24.2025 35.625C23.941 35.626 23.6827 35.5642 23.4465 35.4441C23.2103 35.3241 23.0022 35.1488 22.8375 34.9313L14.385 23.6813C14.1276 23.3458 13.9869 22.925 13.9869 22.4907C13.9869 22.0564 14.1276 21.6355 14.385 21.3L23.135 10.05C23.432 9.66712 23.8589 9.42633 24.3216 9.38061C24.7844 9.3349 25.2451 9.48802 25.6025 9.80628C25.9599 10.1245 26.1846 10.5819 26.2273 11.0777C26.2699 11.5735 26.127 12.0671 25.83 12.45L18.0075 22.5L25.5675 32.55C25.7815 32.8253 25.9174 33.1604 25.9592 33.5158C26.001 33.8712 25.9469 34.232 25.8033 34.5555C25.6597 34.879 25.4326 35.1516 25.1489 35.3412C24.8652 35.5307 24.5368 35.6292 24.2025 35.625Z" fill="#FFF"/>
</svg>
